<?xml version="1.0" encoding="UTF-8" standalone="no"?>
<!DOCTYPE svg PUBLIC "-//W3C//DTD SVG 1.1//EN" "http://www.w3.org/Graphics/SVG/1.1/DTD/svg11.dtd">
<svg width="100%" height="100%" viewBox="0 0 1203 1200" version="1.1" xmlns="http://www.w3.org/2000/svg" xmlns:xlink="http://www.w3.org/1999/xlink" xml:space="preserve" xmlns:serif="http://www.serif.com/" style="fill-rule:evenodd;clip-rule:evenodd;stroke-linejoin:round;stroke-miterlimit:1.41421;">
    <g transform="matrix(1,0,0,1,-2569,9.23706e-14)">
        <g transform="matrix(1,0,0,1,-0.502123,0)">
            <g transform="matrix(1.06216,0,0,1.05972,2532.14,-35.8203)">
                <path d="M884.15,33.802C1040.34,33.802 1167.14,160.606 1167.14,316.792L1167.14,882.772C1167.14,1038.96 1040.34,1165.76 884.15,1165.76L318.17,1165.76C290.801,1165.76 264.334,1161.87 239.293,1154.61L496.385,746.333L452.023,701.97L45.978,960.399C38.945,935.728 35.18,909.686 35.18,882.772L35.18,316.792C35.18,160.606 161.983,33.802 318.17,33.802L884.15,33.802ZM659.357,679.582C665.108,728.403 642.307,788.15 594.972,835.484L555.361,875.095C540.143,890.313 523.642,902.996 506.634,913.008C541.425,856.841 563.863,783.157 551.948,730.463L642.657,688.153L642.337,687.833C647.914,685.307 653.593,682.555 659.357,679.582ZM512.498,740.433L457.336,685.271L473.736,668.871L528.898,724.033L512.498,740.433ZM641.166,669.978L534.79,719.596L478.071,663.276L527.815,556.627L528.698,557.51C552.188,505.636 595.302,444.976 652.55,387.728C718.735,321.543 789.482,274.249 845.938,254.33L1014.44,183.861L944.437,351.245C924.763,407.892 877.272,479.161 810.628,545.806C753.381,603.052 692.722,646.166 640.846,669.658L641.166,669.978ZM510.113,553.214L467.555,644.455C416.182,633.424 345.18,654.601 290.559,686.93C300.088,671.598 311.803,656.742 325.603,642.942L365.215,603.331C411.686,556.86 470.12,534.035 518.435,538.659C515.771,543.88 513.291,549.029 510.996,554.096L510.113,553.214ZM832.554,369.841C858.34,395.627 858.34,437.497 832.554,463.283C806.768,489.069 764.898,489.069 739.112,463.283C713.325,437.497 713.325,395.627 739.112,369.841C764.898,344.055 806.768,344.055 832.554,369.841Z" style="fill:white;"/>
            </g>
        </g>
    </g>
</svg>
