<?xml version="1.0" encoding="UTF-8" standalone="no"?>
<!DOCTYPE svg PUBLIC "-//W3C//DTD SVG 1.1//EN" "http://www.w3.org/Graphics/SVG/1.1/DTD/svg11.dtd">
<svg width="100%" height="100%" viewBox="0 0 804 806" version="1.1" xmlns="http://www.w3.org/2000/svg" xmlns:xlink="http://www.w3.org/1999/xlink" xml:space="preserve" xmlns:serif="http://www.serif.com/" style="fill-rule:evenodd;clip-rule:evenodd;stroke-linejoin:round;stroke-miterlimit:1.41421;">
    <g transform="matrix(1,0,0,1,-1420.93,-182.677)">
        <g transform="matrix(1,0,0,1,-0.000762304,0)">
            <g transform="matrix(0.707107,0.707107,-0.707107,0.707107,930.608,-1159.24)">
                <path d="M1983.02,1053.64L1747.07,1053.64L1839.14,639.195L1888.85,639.195L1983.02,1053.64ZM1942.76,510.487C1973.33,534.618 1994.03,580.868 1994.03,633.909L1994.03,678.295C1994.03,695.348 1991.89,711.698 1987.98,726.837C1976,675.876 1947.29,622.021 1911.09,599.173L1938.2,524.646L1937.85,524.646C1939.56,520.106 1941.19,515.382 1942.76,510.487ZM1788.34,523.304L1815.62,598.268C1780.65,620.871 1752.74,672.517 1740.25,721.233C1737,707.303 1735.24,692.417 1735.24,676.953L1735.24,632.566C1735.24,580.493 1755.19,534.966 1784.85,510.487C1786.28,514.904 1787.78,519.179 1789.33,523.304L1788.34,523.304ZM1894.57,626.862L1832.76,626.862L1832.76,608.485L1894.57,608.485L1894.57,626.862ZM1927.19,515.298L1895.38,602.698L1832.05,602.921L1800.17,515.298L1801.16,515.298C1785.26,473.074 1775.43,414.931 1775.43,350.781C1775.43,276.618 1788.57,210.482 1809.04,167.691L1863.96,33.802L1918.52,166.804C1939.24,209.565 1952.56,276.103 1952.56,350.781C1952.56,414.93 1942.73,473.071 1926.83,515.298L1927.19,515.298ZM1866.26,239.908C1895.15,239.908 1918.61,263.367 1918.61,292.261C1918.61,321.156 1895.15,344.615 1866.26,344.615C1837.36,344.615 1813.9,321.156 1813.9,292.261C1813.9,263.367 1837.36,239.908 1866.26,239.908Z" style="fill:white;"/>
            </g>
        </g>
    </g>
</svg>
