<?xml version="1.0" standalone="no"?>
<!DOCTYPE svg PUBLIC "-//W3C//DTD SVG 20010904//EN"
 "http://www.w3.org/TR/2001/REC-SVG-20010904/DTD/svg10.dtd">
<svg version="1.0" xmlns="http://www.w3.org/2000/svg"
 width="1203.000000pt" height="1203.000000pt" viewBox="0 0 1203.000000 1203.000000"
 preserveAspectRatio="xMidYMid meet">
<metadata>
Created by potrace 1.11, written by Peter Selinger 2001-2013
</metadata>
<g transform="translate(0.000000,1203.000000) scale(0.100000,-0.100000)"
fill="#000000" stroke="none">
<path d="M2819 12016 c-2 -2 -42 -6 -89 -10 -100 -8 -125 -11 -250 -32 -14 -3
-57 -11 -96 -20 -39 -8 -77 -17 -85 -18 -112 -21 -387 -116 -527 -182 -40 -19
-75 -34 -77 -34 -2 0 -55 -28 -117 -62 -319 -173 -599 -396 -827 -658 -31 -36
-62 -71 -69 -79 -7 -7 -39 -48 -71 -90 -299 -395 -492 -845 -575 -1344 -3 -15
-8 -58 -12 -95 -3 -37 -9 -76 -12 -87 -10 -32 -11 -6441 -2 -6525 5 -41 12
-102 15 -135 4 -33 8 -67 10 -75 2 -8 7 -31 10 -50 13 -80 27 -150 48 -232
l22 -87 415 264 c228 145 462 293 520 330 58 36 174 110 258 163 84 53 228
145 320 203 302 192 946 601 997 634 28 17 118 75 200 127 891 565 1434 910
1502 954 46 30 87 55 92 56 6 2 116 -102 245 -230 l234 -233 -81 -130 c-126
-200 -202 -320 -492 -779 -147 -234 -359 -569 -470 -745 -111 -176 -246 -390
-300 -475 -141 -223 -263 -416 -304 -482 -20 -32 -130 -207 -246 -389 -115
-183 -235 -372 -265 -420 -64 -103 -262 -418 -295 -469 -104 -160 -155 -242
-155 -245 0 -2 -13 -23 -28 -47 -102 -155 -98 -146 -66 -153 11 -2 44 -10 74
-19 30 -8 96 -22 145 -31 50 -10 99 -19 110 -21 11 -3 40 -7 65 -10 25 -3 61
-7 80 -10 19 -2 82 -7 140 -11 140 -10 6320 -9 6434 0 108 9 239 26 312 41 12
2 39 7 60 10 84 13 327 84 482 141 84 30 288 126 387 182 689 388 1210 1043
1421 1788 26 89 30 108 40 155 3 13 12 56 20 95 20 93 42 259 50 381 9 131 9
6249 0 6384 -4 58 -8 116 -10 130 -2 14 -6 50 -10 80 -4 30 -11 78 -16 105 -5
28 -11 61 -14 75 -20 126 -94 375 -158 535 -303 756 -938 1387 -1688 1674 -47
18 -94 37 -105 41 -11 5 -49 17 -85 28 -36 11 -90 27 -120 36 -90 27 -320 72
-425 82 -27 3 -61 8 -75 12 -25 7 -6483 15 -6491 8z m7335 -2176 c-135 -322
-296 -706 -358 -855 -63 -148 -140 -335 -171 -415 -132 -335 -344 -706 -610
-1070 -88 -121 -238 -312 -298 -381 -12 -14 -47 -54 -77 -89 -208 -242 -511
-550 -744 -755 -44 -39 -96 -84 -115 -101 -210 -185 -529 -422 -806 -596 -159
-100 -247 -149 -456 -254 -231 -116 -234 -118 -379 -184 -181 -84 -276 -128
-355 -165 -300 -141 -463 -215 -475 -215 -16 0 -600 579 -600 595 0 6 13 38
29 71 15 32 41 86 56 119 16 33 57 120 92 194 34 73 63 134 63 136 0 1 26 58
59 126 32 68 67 144 79 169 63 138 145 306 152 310 4 3 32 55 63 115 30 61 78
150 106 198 28 49 51 90 51 92 0 8 169 269 233 360 70 98 234 320 268 360 9
11 54 65 100 120 250 301 601 660 884 905 61 52 115 99 121 105 6 5 28 24 49
40 21 17 43 35 49 40 74 69 380 292 559 409 281 183 527 313 807 427 80 32
177 71 215 87 39 16 169 71 290 121 121 51 231 97 245 103 14 6 34 14 45 18
11 4 31 13 45 19 46 22 1025 428 1027 427 1 -1 -108 -265 -243 -586z m-5028
-3173 c8 -7 -66 -151 -82 -160 -8 -4 -14 -12 -14 -16 0 -5 -25 -62 -56 -127
-31 -66 -99 -211 -151 -324 -53 -113 -124 -265 -159 -338 -35 -74 -64 -138
-64 -144 0 -6 -17 -7 -42 -3 -138 21 -188 24 -328 20 -184 -5 -226 -9 -390
-41 -222 -44 -515 -137 -725 -231 -144 -64 -349 -169 -382 -196 -25 -19 -12 6
47 92 102 150 212 271 520 579 427 426 564 533 885 692 174 85 373 154 514
176 18 3 43 8 55 10 11 2 48 7 81 10 33 3 61 7 62 8 5 5 224 -2 229 -7z m-159
-1685 c239 -239 272 -276 261 -290 -7 -9 -46 -48 -86 -88 l-73 -72 -289 290
c-160 159 -290 293 -290 296 0 4 37 43 83 88 78 78 83 82 101 66 10 -9 142
-140 293 -290z m1665 151 c10 -208 -3 -350 -47 -523 -78 -308 -223 -589 -454
-880 -88 -110 -646 -671 -771 -776 -115 -95 -330 -247 -338 -239 -3 2 22 51
53 107 74 130 66 115 126 238 67 138 181 429 204 520 2 8 13 47 24 85 10 39
31 126 44 195 23 114 30 157 42 275 7 61 7 295 0 336 -3 20 -7 51 -10 70 -2
19 -6 48 -10 64 -7 31 -6 31 92 77 140 66 289 136 353 165 30 14 98 46 150 70
52 24 127 59 165 76 39 18 135 65 214 104 79 40 148 73 152 73 5 0 10 -17 11
-37z"/>
<path d="M7893 8658 c-254 -27 -489 -209 -575 -448 -60 -164 -59 -346 4 -504
60 -154 188 -292 336 -365 115 -58 194 -75 333 -74 267 2 514 168 626 421 64
144 73 344 21 497 -59 179 -228 360 -390 421 -24 9 -52 20 -63 24 -36 15 -90
24 -195 34 -14 1 -57 -2 -97 -6z"/>
</g>
</svg>
